<?xml version="1.0" encoding="UTF-8"?>
<svg width="274" height="42" viewBox="0 0 274 42" fill="none" xmlns="http://www.w3.org/2000/svg">
<g clip-path="url(#clip0)">
<path d="M53.5869 11.3159C53.5869 10.7265 54.0051 10.2652 54.5916 10.2652C55.178 10.2652 55.6371 10.6855 55.6371 11.3159V14.2579C57.0167 12.0309 58.9419 9.92944 62.7467 9.92944C66.4697 9.92944 68.7675 12.0719 69.9404 14.5525C71.32 12.1565 73.6202 9.92944 77.6364 9.92944C82.6958 9.92944 85.8324 13.5018 85.8324 18.881V30.9846C85.8324 31.615 85.4142 32.0353 84.8277 32.0353C84.2413 32.0353 83.7822 31.615 83.7822 30.9846V19.1346C83.7822 14.5115 81.3979 11.8207 77.4682 11.8207C73.8725 11.8207 70.736 14.5936 70.736 19.3858V30.9846C70.736 31.615 70.3177 32.0353 69.7313 32.0353C69.1448 32.0353 68.6858 31.615 68.6858 30.9846V19.0066C68.6858 14.5525 66.2606 11.8207 62.4535 11.8207C58.6487 11.8207 55.6371 15.183 55.6371 19.5114V30.9846C55.6371 31.615 55.2189 32.0353 54.6324 32.0353C54.046 32.0353 53.5869 31.615 53.5869 30.9846V11.3159V11.3159Z" fill="#5F5C7A"/>
<path d="M92.4375 11.3161C92.4375 10.7267 92.8557 10.2654 93.4422 10.2654C94.0286 10.2654 94.4877 10.6857 94.4877 11.3161V30.9848C94.4877 31.6152 94.0695 32.0355 93.483 32.0355C92.8966 32.0355 92.4375 31.6152 92.4375 30.9848V11.3161Z" fill="#5F5C7A"/>
<path d="M101.345 11.3159C101.345 10.7265 101.763 10.2652 102.349 10.2652C102.936 10.2652 103.395 10.6855 103.395 11.3159V14.4269C104.818 11.9053 107.2 9.92944 111.091 9.92944C116.487 9.92944 119.623 13.6274 119.623 18.7554V30.9846C119.623 31.615 119.205 32.0353 118.619 32.0353C118.032 32.0353 117.573 31.615 117.573 30.9846V19.1346C117.573 14.7216 115.105 11.8207 110.798 11.8207C106.616 11.8207 103.395 15.0139 103.395 19.4703V30.9846C103.395 31.615 102.977 32.0353 102.39 32.0353C101.804 32.0353 101.345 31.615 101.345 30.9846V11.3159V11.3159Z" fill="#5F5C7A"/>
<path d="M144.838 30.9847C144.838 31.6151 144.42 32.0354 143.834 32.0354C143.247 32.0354 142.788 31.6151 142.788 30.9847V27.0765C140.947 29.8929 138.231 32.3711 134.006 32.3711C128.862 32.3711 123.635 28.2094 123.635 21.2336V21.1491C123.635 14.1734 128.862 9.92709 134.006 9.92709C138.272 9.92709 141.031 12.3642 142.788 15.055V2.06975C142.788 1.43933 143.207 1.01904 143.793 1.01904C144.379 1.01904 144.838 1.43933 144.838 2.06975V30.9847ZM125.853 21.067V21.1515C125.853 26.7843 129.742 30.3977 134.217 30.3977C138.649 30.3977 142.916 26.6563 142.916 21.1926V21.108C142.916 15.6033 138.649 11.9029 134.217 11.9029C129.574 11.9053 125.853 15.3086 125.853 21.067Z" fill="#5F5C7A"/>
<path d="M150.944 29.5573C150.651 29.3471 150.357 28.9268 150.357 28.381C150.357 27.6249 150.985 26.9945 151.78 26.9945C152.074 26.9945 152.367 27.0791 152.576 27.2457C154.792 28.7578 157.092 29.5573 159.435 29.5573C162.029 29.5573 163.911 28.2119 163.911 26.1105V26.0259C163.911 23.84 161.361 22.9994 158.515 22.2023C155.128 21.2362 151.364 20.0599 151.364 16.0672V15.9826C151.364 12.2412 154.46 9.76294 158.724 9.76294C161.024 9.76294 163.533 10.4779 165.625 11.6131C166.043 11.8644 166.42 12.3281 166.42 12.9585C166.42 13.7146 165.793 14.345 164.997 14.345C164.704 14.345 164.454 14.2604 164.286 14.1759C162.445 13.1252 160.481 12.4948 158.64 12.4948C156.09 12.4948 154.458 13.8402 154.458 15.6469V15.7314C154.458 17.7918 157.135 18.5889 160.02 19.4729C163.365 20.4826 166.961 21.7845 166.961 25.6926V25.7771C166.961 29.8954 163.574 32.2915 159.265 32.2915C156.424 32.2891 153.287 31.2384 150.944 29.5573Z" fill="#5F5C7A"/>
<path d="M173.527 26.1103V12.997H171.77C171.017 12.997 170.347 12.3255 170.347 11.5671C170.347 10.7676 171.017 10.1372 171.77 10.1372H173.527V5.01165C173.527 4.13002 174.195 3.37158 175.115 3.37158C175.993 3.37158 176.747 4.12761 176.747 5.01165V10.1396H182.35C183.145 10.1396 183.814 10.8111 183.814 11.5695C183.814 12.369 183.145 12.9994 182.35 12.9994H176.747V25.6924C176.747 28.3397 178.211 29.3059 180.386 29.3059C181.516 29.3059 182.1 29.0112 182.352 29.0112C183.104 29.0112 183.732 29.6416 183.732 30.3977C183.732 30.987 183.354 31.4484 182.811 31.6585C181.891 32.0377 180.888 32.2479 179.634 32.2479C176.161 32.2454 173.527 30.5233 173.527 26.1103Z" fill="#5F5C7A"/>
<path d="M189.169 11.5696C189.169 10.688 189.881 9.92954 190.758 9.92954C191.679 9.92954 192.39 10.6445 192.39 11.5696V15.6468C193.979 12.0334 197.115 9.84741 199.834 9.84741C200.795 9.84741 201.422 10.5624 201.422 11.4875C201.422 12.3691 200.836 12.9995 200 13.1275C195.817 13.6324 192.388 16.7845 192.388 23.0452V30.4412C192.388 31.3229 191.717 32.0813 190.799 32.0813C189.878 32.0813 189.167 31.3663 189.167 30.4412V11.5696H189.169Z" fill="#5F5C7A"/>
<path d="M202.633 21.1079V21.0234C202.633 14.8882 207.401 9.67578 213.925 9.67578C220.407 9.67578 225.173 14.8037 225.173 20.9389V21.0234C225.173 27.1586 220.364 32.371 213.84 32.371C207.361 32.371 202.633 27.2455 202.633 21.1079ZM221.871 21.1079V21.0234C221.871 16.3592 218.4 12.5332 213.84 12.5332C209.156 12.5332 205.938 16.3568 205.938 20.9389V21.0234C205.938 25.6876 209.367 29.4701 213.925 29.4701C218.609 29.4725 221.871 25.69 221.871 21.1079Z" fill="#5F5C7A"/>
<path d="M229.189 11.5695C229.189 10.6879 229.901 9.92943 230.778 9.92943C231.699 9.92943 232.41 10.6444 232.41 11.5695V13.9221C233.833 11.5695 236.09 9.67822 239.813 9.67822C245.041 9.67822 248.093 13.2096 248.093 18.3785V30.4411C248.093 31.3662 247.382 32.0812 246.504 32.0812C245.584 32.0812 244.872 31.3662 244.872 30.4411V19.1756C244.872 15.1419 242.697 12.6202 238.892 12.6202C235.169 12.6202 232.41 15.352 232.41 19.4293V30.4411C232.41 31.3662 231.742 32.0812 230.821 32.0812C229.901 32.0812 229.189 31.3662 229.189 30.4411V11.5695Z" fill="#5F5C7A"/>
<path d="M253.28 36.1125C252.778 35.8613 252.444 35.3565 252.444 34.7671C252.444 34.0521 253.155 33.3372 253.908 33.3372C254.201 33.3372 254.41 33.4217 254.619 33.5473C256.878 35.0594 259.469 35.8999 262.272 35.8999C267.04 35.8999 270.134 33.2526 270.134 28.1682V25.6054C268.252 28.1271 265.617 30.1875 261.644 30.1875C256.46 30.1875 251.482 26.2793 251.482 20.0162V19.9316C251.482 13.5863 256.501 9.67578 261.644 9.67578C265.702 9.67578 268.336 11.6927 270.093 14.0477V11.5695C270.093 10.6878 270.761 9.9294 271.681 9.9294C272.602 9.9294 273.313 10.6854 273.313 11.5695V28.0861C273.313 31.4483 272.309 34.0111 270.554 35.7767C268.631 37.7091 265.745 38.6777 262.315 38.6777C259.008 38.6752 255.999 37.7936 253.28 36.1125ZM270.218 19.9727V19.8882C270.218 15.4341 266.37 12.5332 262.272 12.5332C258.174 12.5332 254.785 15.3907 254.785 19.8471V19.9316C254.785 24.3035 258.255 27.3276 262.272 27.3276C266.37 27.3276 270.218 24.3446 270.218 19.9727Z" fill="#5F5C7A"/>
<path d="M93.4562 6.00933C94.1531 6.00933 94.718 5.44159 94.718 4.74124C94.718 4.04089 94.1531 3.47314 93.4562 3.47314C92.7593 3.47314 92.1943 4.04089 92.1943 4.74124C92.1943 5.44159 92.7593 6.00933 93.4562 6.00933Z" fill="#5F5C7A"/>
<path d="M38.7761 32.8615C39.1991 32.5596 39.3625 32.1925 39.3793 31.5934L39.3841 9.94891C39.2375 7.54075 35.9808 7.77021 35.9303 9.94891V29.6394C35.9303 30.3157 35.7765 30.5935 35.2814 30.8881L33.3922 31.9751C32.9812 32.2142 32.4885 31.9364 32.4885 31.4582V7.02385C32.4741 6.38135 32.301 5.99971 31.8347 5.68812L24.2589 1.31381C22.1726 0.243778 20.6248 3.12295 22.5307 4.321L28.3713 7.67601C28.8664 8.00692 29.025 8.12045 29.025 8.79918L29.0322 33.649C29.025 34.2987 28.9337 34.5378 28.3833 34.8881L26.4749 35.9943C26.0639 36.2335 25.5784 35.9557 25.5784 35.4774L25.5736 10.961C25.5664 10.2943 25.3933 9.90544 24.9174 9.5866L18.5601 5.91517C17.9376 5.56252 17.8439 5.31856 17.8054 4.72196L17.7982 2.2848C17.8343 0.908017 16.2768 0.0312218 15.1039 0.811401L1.19239 8.89579C0.697269 9.22671 0.531427 9.63491 0.536234 10.3523L0.538637 31.8374C0.685251 34.2456 3.94201 34.0161 3.99248 31.8374V12.1469C3.99248 11.403 4.15111 11.2363 4.64623 10.9054L6.55462 9.78467C6.96562 9.54554 7.4343 9.83781 7.4343 10.3136V34.7721C7.45113 35.4074 7.62418 35.7842 8.08806 36.0934L15.6615 40.4701C17.7478 41.5401 19.2956 38.6609 17.3896 37.4629L11.5443 34.1031C11.0492 33.7721 10.8905 33.6586 10.8905 32.9799V8.13735C10.8857 7.41997 11.0516 7.21708 11.5467 6.88375L13.4551 5.77749C13.8661 5.53837 14.3468 5.83546 14.3468 6.3113L14.3492 30.8688C14.3636 31.5113 14.5367 31.8905 15.003 32.2021L21.4756 35.9533C21.9707 36.2842 22.1294 36.3977 22.1294 37.0764V39.6464C22.187 40.9169 23.6988 41.7309 24.8213 40.9701L38.7256 32.8905C38.7424 32.8857 38.7592 32.8736 38.7761 32.8615ZM21.2304 31.8277L18.4616 30.2046C17.8559 29.835 17.8006 29.4848 17.8006 28.9534V10.4996C17.8006 10.0214 18.2885 9.7267 18.702 9.96582L21.4708 11.589C21.9299 11.8909 22.1173 12.1059 22.127 12.7532L22.1318 31.2746C22.1294 31.7504 21.6414 32.0669 21.2304 31.8277Z" fill="url(#paint0_linear)"/>
</g>
<defs>
<linearGradient id="paint0_linear" x1="19.9613" y1="41.2687" x2="19.9613" y2="0.517639" gradientUnits="userSpaceOnUse">
<stop offset="0.069" stop-color="#FF276A"/>
<stop offset="0.1595" stop-color="#E14989"/>
<stop offset="0.282" stop-color="#BF6FAD"/>
<stop offset="0.4094" stop-color="#A28FCB"/>
<stop offset="0.5409" stop-color="#8CA8E2"/>
<stop offset="0.6782" stop-color="#7CB9F2"/>
<stop offset="0.8252" stop-color="#73C4FC"/>
<stop offset="0.9988" stop-color="#70C7FF"/>
</linearGradient>
<clipPath id="clip0">
<rect width="274" height="41.5451" fill="white"/>
</clipPath>
</defs>
</svg>
