<svg enable-background="new -447 249 64 64" viewBox="-447 249 64 64" xmlns="http://www.w3.org/2000/svg"><path d="m-390 275c1.7 0 3 1.3 3 3s-1.3 3-3 3-3-1.3-3-3 1.3-3 3-3zm-3-6c-1.1 0-2 .9-2 2s.9 2 2 2 2-.9 2-2-.9-2-2-2zm-2 14c0-1.1-.9-2-2-2s-2 .9-2 2 .9 2 2 2 2-.9 2-2zm4 14v-4h2c1.1 0 2-.9 2-2s-.9-2-2-2h-8c-1.1 0-2 .9-2 2s.9 2 2 2h2v4l-5.7 11.4c-.5 1-.4 2.2.1 3.1s1.6 1.5 2.7 1.5h9.6c1.1 0 2.1-.6 2.7-1.5s.6-2.1.1-3.1zm-48.8-4.1c-1.9 3.2-2.9 6.9-3.2 11.9-.1 1.1.3 2.2 1.1 3s1.8 1.3 2.9 1.3h32v4h-32c-2.2 0-4.3-.9-5.8-2.5s-2.3-3.8-2.2-6c.3-4.7 1.1-9.3 3.7-13.7 3.5-6 9.2-10.3 15.6-12.4-4.4-2.8-7.4-7.8-7.4-13.4 0-8.8 7.2-16 16-16s16 7.2 16 16c0 5.6-2.9 10.6-7.4 13.4 3 1 5.8 2.5 8.3 4.4l-2.5 3.1c-4.1-3.1-9.2-4.9-14.5-4.9-8.3-.1-16.3 4.5-20.6 11.8zm20.8-15.9c6.6 0 12-5.4 12-12s-5.4-12-12-12-12 5.4-12 12 5.4 12 12 12z" fill="#31b2d2"/></svg>