<svg enable-background="new -447 249 64 64" viewBox="-447 249 64 64" xmlns="http://www.w3.org/2000/svg"><path d="m-439.3 290.9c-2.6 4.4-3.4 8.9-3.7 13.7-.1 2.2.7 4.4 2.2 6s3.6 2.5 5.8 2.5h39.9c2.2 0 4.3-.9 5.8-2.5s2.3-3.7 2.2-5.9c-.2-4.4-1-8.7-3.2-12.8-3.5-6.4-9.3-11.1-16.1-13.3 4.4-2.8 7.4-7.8 7.4-13.4 0-8.8-7.2-16-16-16s-16 7.2-16 16c0 5.6 2.9 10.6 7.4 13.4-6.5 1.9-12.2 6.3-15.7 12.3zm12.3-25.9c0-6.6 5.4-12 12-12s12 5.4 12 12-5.4 12-12 12-12-5.4-12-12zm10.5 16.1-5.2 14.3c-.2.5-.1 1.1.3 1.5l5.3 5.2c.5.5 1.4.5 2 0l5.3-5.2c.4-.4.5-1 .3-1.5l-5.2-14.3c8.2.5 15.9 5.4 19.8 12.6 1.6 3 2.5 6.5 2.7 11.1.1 1.1-.3 2.2-1.1 3s-1.8 1.3-2.9 1.3h-39.8c-1.1 0-2.2-.5-2.9-1.3-.8-.8-1.2-1.9-1.1-3 .3-5 1.3-8.6 3.2-11.9 4-6.9 11.4-11.3 19.3-11.8z" fill="#31b2d2"/></svg>