<?xml version="1.0" encoding="utf-8"?>
<!-- Generator: Adobe Illustrator 16.0.0, SVG Export Plug-In . SVG Version: 6.00 Build 0)  -->
<!DOCTYPE svg PUBLIC "-//W3C//DTD SVG 1.1//EN" "http://www.w3.org/Graphics/SVG/1.1/DTD/svg11.dtd">
<svg version="1.1" id="Layer_1" xmlns="http://www.w3.org/2000/svg" xmlns:xlink="http://www.w3.org/1999/xlink" x="0px" y="0px"
	 width="700px" height="560px" viewBox="0 0 700 560" enable-background="new 0 0 700 560" xml:space="preserve">
<rect x="0" y="103.264" fill="#00ADEE" width="699.474" height="352.464"/>
<g>
	<path fill="#FFFFFF" d="M314.886,287.378c-0.245,0.133-0.5,0.241-0.745,0.364l-49.106-49.809c0,0-4.138,30.961-6.775,45.976
		c-4.833-3.457-8.902-7.714-12.16-12.809c-4.802-7.497-7.491-16.243-8.077-26.241c-0.842-14.349,3.35-26.706,12.584-37.074
		c3.557-3.995,7.503-7.266,11.818-9.845l45.879,51.175c0,0,4.207-36.243,6.74-52.084c6.196,3.098,12.187,7.343,17.97,12.778
		l18.836-20.193c-8.854-9.145-19.156-15.992-30.908-20.544c-11.754-4.549-23.812-6.461-36.175-5.735
		c-14.537,0.853-27.9,5.181-40.084,12.984c-12.188,7.81-21.32,17.716-27.398,29.729c-6.078,12.013-8.676,25.493-7.799,40.435
		c1.357,23.098,9.891,41.601,25.599,55.501c15.711,13.905,35.217,20.172,58.52,18.804c12.631-0.742,23.751-3.491,33.359-8.249
		c9.601-4.758,19.624-12.866,30.064-24.324l-20.529-19.043C328.763,277.811,321.56,283.883,314.886,287.378z"/>
	<g>
		<path fill="#FFFFFF" d="M344.467,225.092h2.223l18.227,26.471h0.081v-26.471h1.778v28.855h-2.102l-18.348-26.673h-0.081v26.673
			h-1.778V225.092z"/>
		<path fill="#FFFFFF" d="M370.614,243.561c0-1.481,0.209-2.875,0.627-4.183c0.417-1.307,1.03-2.458,1.839-3.456
			c0.808-0.997,1.805-1.784,2.99-2.364c1.186-0.579,2.546-0.869,4.082-0.869c1.535,0,2.896,0.29,4.081,0.869
			c1.186,0.58,2.183,1.368,2.991,2.364c0.808,0.997,1.421,2.149,1.839,3.456c0.417,1.307,0.626,2.701,0.626,4.183
			c0,1.482-0.209,2.883-0.626,4.203c-0.418,1.32-1.031,2.472-1.839,3.455c-0.809,0.984-1.806,1.765-2.991,2.344
			s-2.546,0.869-4.081,0.869c-1.536,0-2.896-0.29-4.082-0.869s-2.183-1.36-2.99-2.344c-0.809-0.983-1.422-2.135-1.839-3.455
			C370.823,246.444,370.614,245.042,370.614,243.561z M372.15,243.561c0,1.24,0.175,2.432,0.525,3.577
			c0.35,1.146,0.861,2.162,1.535,3.051s1.509,1.596,2.506,2.122c0.996,0.525,2.142,0.788,3.436,0.788
			c1.293,0,2.438-0.263,3.435-0.788s1.832-1.232,2.506-2.122c0.673-0.889,1.186-1.906,1.536-3.051
			c0.35-1.145,0.525-2.337,0.525-3.577c0-1.239-0.176-2.431-0.525-3.577c-0.351-1.145-0.863-2.162-1.536-3.051
			c-0.674-0.889-1.509-1.596-2.506-2.122s-2.142-0.788-3.435-0.788c-1.294,0-2.439,0.263-3.436,0.788
			c-0.997,0.525-1.832,1.232-2.506,2.122s-1.186,1.907-1.535,3.051C372.325,241.129,372.15,242.322,372.15,243.561z"/>
		<path fill="#FFFFFF" d="M394.821,237.781h0.121c0.188-0.673,0.532-1.306,1.03-1.899c0.499-0.592,1.104-1.104,1.819-1.536
			c0.713-0.431,1.508-0.761,2.384-0.99c0.875-0.229,1.785-0.33,2.729-0.303v1.536c-0.809-0.107-1.731-0.026-2.769,0.243
			c-1.037,0.27-2.027,0.862-2.971,1.778c-0.377,0.404-0.707,0.795-0.99,1.172c-0.282,0.378-0.519,0.795-0.707,1.253
			c-0.188,0.458-0.337,0.97-0.444,1.536c-0.108,0.566-0.176,1.24-0.202,2.021v11.356h-1.536v-20.772h1.536V237.781z"/>
		<path fill="#FFFFFF" d="M403.712,239.519c0-2.101,0.31-4.075,0.93-5.92c0.619-1.845,1.515-3.448,2.688-4.809
			c1.172-1.36,2.612-2.431,4.324-3.213c1.71-0.781,3.644-1.172,5.799-1.172c1.697,0,3.166,0.222,4.405,0.667
			c1.239,0.445,2.283,0.997,3.132,1.657c0.849,0.661,1.542,1.381,2.081,2.162c0.539,0.782,0.95,1.516,1.232,2.203
			c0.283,0.687,0.479,1.28,0.587,1.778c0.106,0.499,0.161,0.775,0.161,0.829h-1.778c-0.188-1.212-0.579-2.296-1.172-3.253
			c-0.593-0.956-1.334-1.771-2.223-2.445c-0.889-0.673-1.879-1.185-2.971-1.536c-1.091-0.35-2.242-0.525-3.455-0.525
			c-1.886,0-3.57,0.364-5.052,1.091c-1.481,0.727-2.734,1.704-3.758,2.93c-1.024,1.227-1.806,2.661-2.345,4.304
			c-0.539,1.644-0.808,3.395-0.808,5.253c0,1.859,0.269,3.611,0.808,5.254c0.539,1.644,1.32,3.079,2.345,4.304
			c1.023,1.226,2.276,2.202,3.758,2.93s3.166,1.091,5.052,1.091c1.4,0,2.714-0.289,3.94-0.869c1.226-0.579,2.297-1.347,3.213-2.303
			c0.915-0.956,1.65-2.061,2.202-3.314s0.869-2.552,0.95-3.9h1.778c-0.162,1.725-0.586,3.314-1.273,4.769
			c-0.687,1.455-1.562,2.715-2.627,3.779c-1.064,1.064-2.297,1.893-3.697,2.485c-1.401,0.592-2.896,0.889-4.486,0.889
			c-2.155,0-4.089-0.391-5.799-1.172c-1.712-0.781-3.152-1.852-4.324-3.213c-1.173-1.36-2.068-2.963-2.688-4.809
			C404.021,243.595,403.712,241.621,403.712,239.519z"/>
		<path fill="#FFFFFF" d="M432.001,243.561c0-1.481,0.209-2.875,0.627-4.183c0.417-1.307,1.03-2.458,1.839-3.456
			c0.808-0.997,1.805-1.784,2.99-2.364c1.186-0.579,2.546-0.869,4.082-0.869c1.535,0,2.896,0.29,4.081,0.869
			c1.186,0.58,2.183,1.368,2.991,2.364c0.808,0.997,1.421,2.149,1.839,3.456c0.417,1.307,0.626,2.701,0.626,4.183
			c0,1.482-0.209,2.883-0.626,4.203c-0.418,1.32-1.031,2.472-1.839,3.455c-0.809,0.984-1.806,1.765-2.991,2.344
			s-2.546,0.869-4.081,0.869c-1.536,0-2.896-0.29-4.082-0.869s-2.183-1.36-2.99-2.344c-0.809-0.983-1.422-2.135-1.839-3.455
			C432.21,246.444,432.001,245.042,432.001,243.561z M433.537,243.561c0,1.24,0.175,2.432,0.525,3.577
			c0.35,1.146,0.861,2.162,1.535,3.051s1.509,1.596,2.506,2.122c0.996,0.525,2.142,0.788,3.436,0.788
			c1.293,0,2.438-0.263,3.435-0.788s1.832-1.232,2.506-2.122c0.673-0.889,1.186-1.906,1.536-3.051
			c0.35-1.145,0.525-2.337,0.525-3.577c0-1.239-0.176-2.431-0.525-3.577c-0.351-1.145-0.863-2.162-1.536-3.051
			c-0.674-0.889-1.509-1.596-2.506-2.122s-2.142-0.788-3.435-0.788c-1.294,0-2.439,0.263-3.436,0.788
			c-0.997,0.525-1.832,1.232-2.506,2.122s-1.186,1.907-1.535,3.051C433.712,241.129,433.537,242.322,433.537,243.561z"/>
		<path fill="#FFFFFF" d="M454.713,233.174h1.535v4.244h0.081c0.162-0.647,0.444-1.259,0.849-1.839
			c0.404-0.579,0.896-1.084,1.476-1.516c0.579-0.431,1.226-0.768,1.939-1.01c0.714-0.243,1.461-0.364,2.243-0.364
			c0.996,0,1.858,0.128,2.586,0.384c0.728,0.256,1.348,0.593,1.859,1.01c0.512,0.418,0.916,0.889,1.213,1.415
			c0.296,0.525,0.498,1.058,0.605,1.596h0.081c0.619-1.455,1.448-2.552,2.485-3.293c1.037-0.741,2.404-1.111,4.102-1.111
			c0.943,0,1.812,0.142,2.607,0.424c0.794,0.283,1.481,0.714,2.061,1.293c0.579,0.58,1.031,1.313,1.354,2.203
			s0.484,1.94,0.484,3.152v14.185h-1.535v-14.226c0-1.32-0.202-2.357-0.606-3.112c-0.404-0.754-0.883-1.327-1.435-1.717
			c-0.553-0.391-1.105-0.633-1.657-0.728c-0.553-0.094-0.977-0.142-1.273-0.142c-0.943,0-1.812,0.162-2.606,0.485
			c-0.795,0.324-1.481,0.809-2.061,1.455c-0.58,0.646-1.031,1.449-1.354,2.405c-0.323,0.957-0.484,2.055-0.484,3.293v12.286h-1.536
			v-14.226c0-1.293-0.195-2.324-0.586-3.091c-0.391-0.768-0.849-1.34-1.374-1.718c-0.525-0.377-1.064-0.62-1.616-0.728
			c-0.553-0.107-0.99-0.162-1.313-0.162c-0.728,0-1.482,0.148-2.264,0.445s-1.495,0.754-2.142,1.374
			c-0.646,0.62-1.172,1.414-1.576,2.384c-0.404,0.97-0.606,2.115-0.606,3.435v12.286h-1.535V233.174z"/>
	</g>
</g>
<g>
	<path fill="#FFFFFF" d="M96.81,404.062v-0.853h12.281v0.853h-5.658v15.178h-0.988v-15.178H96.81z"/>
	<path fill="#FFFFFF" d="M108.193,413.582v0.135c0,0.674,0.09,1.317,0.27,1.931c0.18,0.614,0.446,1.153,0.799,1.617
		c0.353,0.464,0.795,0.83,1.328,1.1c0.532,0.27,1.151,0.404,1.857,0.404c1.156,0,2.071-0.303,2.747-0.909s1.141-1.448,1.396-2.525
		h0.853c-0.255,1.347-0.805,2.38-1.65,3.098c-0.846,0.719-1.964,1.078-3.356,1.078c-0.853,0-1.598-0.153-2.234-0.46
		s-1.167-0.727-1.594-1.258c-0.426-0.531-0.745-1.16-0.954-1.886s-0.314-1.508-0.314-2.347c0-0.808,0.108-1.582,0.326-2.323
		c0.217-0.741,0.542-1.393,0.977-1.953c0.434-0.562,0.977-1.011,1.628-1.348s1.418-0.505,2.301-0.505
		c0.808,0,1.523,0.149,2.144,0.449s1.141,0.707,1.561,1.224c0.419,0.517,0.737,1.115,0.954,1.796
		c0.217,0.682,0.326,1.411,0.326,2.189c0,0.074-0.004,0.16-0.011,0.258c-0.008,0.098-0.011,0.176-0.011,0.235H108.193z
		 M116.68,412.842c-0.03-0.629-0.135-1.224-0.315-1.785s-0.446-1.056-0.799-1.481c-0.353-0.427-0.781-0.768-1.283-1.022
		c-0.503-0.254-1.077-0.381-1.722-0.381c-0.69,0-1.298,0.131-1.824,0.393s-0.968,0.606-1.328,1.033
		c-0.36,0.426-0.638,0.924-0.833,1.492c-0.195,0.569-0.315,1.153-0.36,1.752H116.68z"/>
	<path fill="#FFFFFF" d="M120.586,403.21v16.03h-0.853v-16.03H120.586z"/>
	<path fill="#FFFFFF" d="M123.617,413.582v0.135c0,0.674,0.09,1.317,0.27,1.931c0.18,0.614,0.446,1.153,0.799,1.617
		c0.353,0.464,0.795,0.83,1.328,1.1c0.532,0.27,1.151,0.404,1.857,0.404c1.156,0,2.071-0.303,2.747-0.909s1.141-1.448,1.396-2.525
		h0.853c-0.255,1.347-0.805,2.38-1.65,3.098c-0.846,0.719-1.964,1.078-3.356,1.078c-0.853,0-1.598-0.153-2.234-0.46
		s-1.167-0.727-1.594-1.258c-0.426-0.531-0.745-1.16-0.954-1.886s-0.314-1.508-0.314-2.347c0-0.808,0.108-1.582,0.326-2.323
		c0.217-0.741,0.542-1.393,0.977-1.953c0.434-0.562,0.977-1.011,1.628-1.348s1.418-0.505,2.301-0.505
		c0.808,0,1.523,0.149,2.144,0.449s1.141,0.707,1.561,1.224c0.419,0.517,0.737,1.115,0.954,1.796
		c0.217,0.682,0.326,1.411,0.326,2.189c0,0.074-0.004,0.16-0.011,0.258c-0.008,0.098-0.011,0.176-0.011,0.235H123.617z
		 M132.104,412.842c-0.03-0.629-0.135-1.224-0.315-1.785s-0.446-1.056-0.799-1.481c-0.353-0.427-0.781-0.768-1.283-1.022
		c-0.503-0.254-1.077-0.381-1.722-0.381c-0.69,0-1.298,0.131-1.824,0.393s-0.968,0.606-1.328,1.033
		c-0.36,0.426-0.638,0.924-0.833,1.492c-0.195,0.569-0.315,1.153-0.36,1.752H132.104z"/>
	<path fill="#FFFFFF" d="M134.978,407.7h0.853v2.357h0.045c0.09-0.359,0.247-0.699,0.472-1.021s0.498-0.603,0.819-0.842
		s0.681-0.427,1.078-0.562s0.812-0.202,1.246-0.202c0.554,0,1.033,0.071,1.437,0.213c0.404,0.143,0.748,0.33,1.033,0.562
		c0.284,0.232,0.509,0.494,0.674,0.786c0.165,0.292,0.276,0.587,0.336,0.887h0.045c0.344-0.809,0.805-1.418,1.381-1.83
		c0.576-0.411,1.336-0.617,2.279-0.617c0.524,0,1.006,0.078,1.448,0.235c0.441,0.157,0.823,0.397,1.145,0.719
		c0.322,0.322,0.573,0.729,0.752,1.224c0.18,0.494,0.27,1.078,0.27,1.751v7.881h-0.853v-7.903c0-0.733-0.112-1.31-0.337-1.729
		s-0.49-0.737-0.797-0.954c-0.307-0.217-0.614-0.352-0.92-0.404c-0.307-0.052-0.543-0.078-0.708-0.078
		c-0.524,0-1.007,0.09-1.448,0.269c-0.441,0.18-0.823,0.449-1.145,0.809s-0.572,0.805-0.752,1.336s-0.27,1.142-0.27,1.83v6.825
		h-0.853v-7.903c0-0.718-0.109-1.291-0.326-1.717c-0.217-0.427-0.471-0.745-0.763-0.955c-0.292-0.209-0.591-0.344-0.898-0.403
		c-0.307-0.061-0.55-0.09-0.73-0.09c-0.404,0-0.823,0.082-1.257,0.247c-0.434,0.164-0.831,0.419-1.19,0.763
		c-0.359,0.345-0.651,0.786-0.875,1.325c-0.225,0.538-0.337,1.175-0.337,1.908v6.825h-0.853V407.7z"/>
	<path fill="#FFFFFF" d="M153.859,410.35h0.067c0.09-0.284,0.239-0.599,0.449-0.943c0.209-0.344,0.486-0.662,0.831-0.954
		c0.344-0.292,0.759-0.535,1.246-0.729c0.486-0.194,1.044-0.292,1.673-0.292c0.883,0,1.65,0.165,2.301,0.494
		c0.651,0.329,1.19,0.771,1.616,1.324c0.427,0.554,0.745,1.198,0.954,1.931c0.209,0.734,0.314,1.505,0.314,2.312
		c0,0.884-0.105,1.692-0.315,2.425c-0.21,0.734-0.529,1.366-0.957,1.897s-0.968,0.947-1.621,1.246
		c-0.652,0.299-1.421,0.449-2.307,0.449c-0.96,0-1.815-0.21-2.565-0.629s-1.298-1.1-1.643-2.043h-0.044l-0.001,6.533h-0.831V407.7
		h0.831V410.35z M158.114,418.769c0.75,0,1.399-0.142,1.947-0.427c0.548-0.284,0.998-0.665,1.351-1.145
		c0.353-0.479,0.615-1.036,0.788-1.673c0.172-0.636,0.259-1.313,0.259-2.032c0-0.658-0.083-1.306-0.248-1.941
		c-0.166-0.637-0.42-1.205-0.766-1.707c-0.345-0.501-0.792-0.905-1.339-1.212s-1.212-0.46-1.992-0.46
		c-0.766,0-1.418,0.149-1.959,0.448c-0.54,0.3-0.979,0.696-1.317,1.19c-0.338,0.494-0.582,1.059-0.731,1.695
		c-0.15,0.636-0.225,1.299-0.225,1.986c0,0.689,0.067,1.352,0.203,1.987c0.135,0.637,0.364,1.197,0.687,1.684
		c0.323,0.487,0.758,0.876,1.306,1.168S157.304,418.769,158.114,418.769z"/>
	<path fill="#FFFFFF" d="M172.966,416.95h-0.045c-0.135,0.345-0.33,0.67-0.584,0.977s-0.565,0.58-0.932,0.819
		c-0.367,0.24-0.782,0.427-1.246,0.562c-0.464,0.135-0.973,0.202-1.527,0.202c-1.228,0-2.178-0.266-2.851-0.797
		c-0.674-0.531-1.011-1.351-1.011-2.459c0-0.673,0.135-1.224,0.404-1.65c0.27-0.426,0.61-0.763,1.021-1.01s0.868-0.423,1.37-0.527
		s0.984-0.18,1.448-0.225l1.325-0.112c0.613-0.045,1.096-0.116,1.448-0.214c0.351-0.097,0.617-0.231,0.797-0.404
		c0.18-0.172,0.292-0.393,0.337-0.662s0.067-0.606,0.067-1.01c0-0.314-0.06-0.606-0.18-0.876c-0.12-0.27-0.307-0.509-0.562-0.719
		c-0.254-0.209-0.583-0.374-0.988-0.493c-0.404-0.12-0.898-0.18-1.482-0.18c-1.033,0-1.867,0.254-2.503,0.763
		c-0.636,0.51-0.984,1.28-1.044,2.312h-0.853c0.06-1.271,0.468-2.226,1.224-2.862c0.755-0.636,1.83-0.954,3.222-0.954
		s2.406,0.273,3.042,0.819c0.636,0.547,0.954,1.262,0.954,2.145v6.713c0,0.165,0.003,0.329,0.011,0.494
		c0.007,0.165,0.034,0.314,0.079,0.448c0.045,0.135,0.12,0.244,0.225,0.326c0.104,0.082,0.254,0.123,0.449,0.123
		c0.149,0,0.359-0.022,0.629-0.067v0.719c-0.225,0.06-0.457,0.09-0.696,0.09c-0.344,0-0.617-0.045-0.819-0.135
		s-0.356-0.209-0.46-0.359c-0.104-0.149-0.176-0.325-0.213-0.527c-0.038-0.202-0.056-0.423-0.056-0.662V416.95z M172.966,412.685
		c-0.21,0.255-0.528,0.427-0.955,0.517c-0.426,0.089-0.902,0.156-1.425,0.201l-1.437,0.135c-0.419,0.045-0.838,0.109-1.257,0.191
		c-0.419,0.082-0.797,0.221-1.134,0.415c-0.337,0.194-0.61,0.46-0.82,0.797s-0.314,0.774-0.314,1.313
		c0,0.854,0.269,1.486,0.808,1.897c0.539,0.412,1.28,0.617,2.223,0.617c0.973,0,1.744-0.176,2.312-0.527s1.003-0.756,1.302-1.213
		c0.299-0.456,0.49-0.897,0.573-1.324c0.082-0.427,0.124-0.715,0.124-0.864V412.685z"/>
	<path fill="#FFFFFF" d="M180.779,408.44h-2.514v8.061c0,0.464,0.052,0.831,0.157,1.101s0.266,0.475,0.483,0.617
		c0.217,0.143,0.479,0.229,0.786,0.258c0.307,0.03,0.663,0.038,1.066,0.022v0.741c-0.434,0.03-0.857,0.026-1.269-0.011
		c-0.412-0.038-0.774-0.15-1.089-0.337c-0.314-0.188-0.565-0.468-0.752-0.843c-0.188-0.373-0.266-0.89-0.236-1.549v-8.061h-2.133
		v-0.74h2.133v-3.593h0.854v3.593h2.514V408.44z"/>
	<path fill="#FFFFFF" d="M183.204,403.21v6.96h0.045c0.149-0.435,0.363-0.819,0.64-1.156c0.277-0.337,0.598-0.625,0.965-0.864
		c0.367-0.239,0.767-0.419,1.201-0.539c0.434-0.12,0.875-0.18,1.325-0.18c0.673,0,1.246,0.082,1.717,0.247
		c0.472,0.165,0.857,0.382,1.156,0.651c0.299,0.269,0.535,0.572,0.708,0.909c0.172,0.337,0.295,0.677,0.37,1.021
		c0.075,0.344,0.12,0.677,0.135,0.999s0.022,0.603,0.022,0.842v7.14h-0.853v-7.297c0-0.284-0.022-0.644-0.067-1.078
		c-0.045-0.434-0.176-0.849-0.393-1.245s-0.546-0.737-0.988-1.022c-0.441-0.284-1.052-0.426-1.83-0.426
		c-0.659,0-1.243,0.119-1.751,0.358c-0.509,0.24-0.943,0.573-1.302,1c-0.359,0.426-0.632,0.936-0.819,1.526
		c-0.188,0.592-0.281,1.238-0.281,1.942v6.241h-0.853v-16.03H183.204z"/>
	<path fill="#FFFFFF" d="M192.611,407.7h1.01l4.289,10.529l3.951-10.529h0.966l-4.939,12.774c-0.24,0.569-0.46,1.06-0.663,1.471
		c-0.202,0.412-0.43,0.715-0.685,0.909c-0.3,0.239-0.655,0.386-1.066,0.438c-0.412,0.052-0.954,0.078-1.628,0.078v-0.74
		c0.614,0,1.092-0.049,1.437-0.146c0.344-0.098,0.666-0.296,0.965-0.595c0.165-0.165,0.337-0.468,0.517-0.909
		s0.404-1.044,0.673-1.808L192.611,407.7z"/>
	<path fill="#FFFFFF" d="M218.149,412.224l-7.016,7.017v-14.032L218.149,412.224z"/>
	<path fill="#FFFFFF" d="M225.974,411.225c0-1.167,0.172-2.264,0.517-3.289c0.344-1.024,0.842-1.916,1.493-2.672
		c0.651-0.755,1.452-1.351,2.402-1.784c0.95-0.435,2.024-0.651,3.222-0.651c0.943,0,1.759,0.123,2.447,0.37s1.269,0.554,1.74,0.921
		c0.472,0.367,0.857,0.767,1.157,1.201c0.299,0.435,0.527,0.842,0.685,1.224s0.266,0.711,0.326,0.987
		c0.06,0.277,0.09,0.431,0.09,0.461h-0.988c-0.104-0.674-0.322-1.276-0.651-1.808c-0.33-0.531-0.741-0.984-1.235-1.358
		s-1.044-0.658-1.65-0.854c-0.606-0.194-1.246-0.292-1.919-0.292c-1.048,0-1.983,0.202-2.807,0.606s-1.519,0.947-2.088,1.628
		c-0.569,0.682-1.003,1.479-1.302,2.392s-0.449,1.886-0.449,2.918c0,1.033,0.149,2.006,0.449,2.919s0.733,1.71,1.302,2.392
		c0.569,0.681,1.265,1.224,2.088,1.627c0.823,0.404,1.759,0.606,2.807,0.606c0.778,0,1.508-0.16,2.189-0.482s1.276-0.748,1.785-1.28
		c0.508-0.53,0.917-1.145,1.224-1.841c0.307-0.696,0.482-1.418,0.527-2.166h0.988c-0.09,0.958-0.325,1.841-0.707,2.648
		c-0.382,0.809-0.868,1.509-1.459,2.1c-0.591,0.592-1.276,1.052-2.054,1.381c-0.778,0.329-1.609,0.494-2.492,0.494
		c-1.198,0-2.271-0.218-3.222-0.651c-0.951-0.434-1.751-1.029-2.402-1.785c-0.651-0.755-1.149-1.646-1.493-2.672
		C226.146,413.489,225.974,412.393,225.974,411.225z"/>
	<path fill="#FFFFFF" d="M241.69,413.47c0-0.822,0.116-1.598,0.348-2.323c0.232-0.726,0.573-1.366,1.021-1.92
		c0.449-0.554,1.003-0.991,1.662-1.313c0.658-0.321,1.415-0.482,2.268-0.482s1.609,0.161,2.268,0.482
		c0.659,0.322,1.212,0.76,1.662,1.313c0.449,0.554,0.789,1.194,1.021,1.92c0.232,0.726,0.348,1.501,0.348,2.323
		c0,0.824-0.116,1.603-0.348,2.335c-0.232,0.734-0.573,1.374-1.021,1.92c-0.449,0.547-1.003,0.98-1.662,1.303
		c-0.659,0.321-1.415,0.482-2.268,0.482s-1.609-0.161-2.268-0.482c-0.659-0.322-1.212-0.756-1.662-1.303
		c-0.449-0.546-0.79-1.186-1.021-1.92C241.806,415.072,241.69,414.294,241.69,413.47z M242.543,413.47
		c0,0.689,0.097,1.352,0.292,1.987c0.194,0.637,0.479,1.201,0.854,1.695c0.374,0.494,0.838,0.887,1.392,1.179
		c0.553,0.292,1.19,0.438,1.908,0.438s1.354-0.146,1.908-0.438s1.018-0.685,1.392-1.179s0.659-1.059,0.854-1.695
		c0.194-0.636,0.292-1.298,0.292-1.987c0-0.688-0.097-1.351-0.292-1.986c-0.195-0.637-0.479-1.201-0.854-1.695
		s-0.838-0.887-1.392-1.179s-1.19-0.438-1.908-0.438s-1.355,0.146-1.908,0.438c-0.554,0.292-1.018,0.685-1.392,1.179
		c-0.375,0.494-0.659,1.059-0.854,1.695C242.641,412.119,242.543,412.782,242.543,413.47z"/>
	<path fill="#FFFFFF" d="M254.308,407.7h0.853v2.357h0.045c0.09-0.359,0.247-0.699,0.472-1.021s0.498-0.603,0.819-0.842
		s0.681-0.427,1.078-0.562s0.812-0.202,1.246-0.202c0.554,0,1.033,0.071,1.437,0.213c0.404,0.143,0.748,0.33,1.033,0.562
		c0.284,0.232,0.509,0.494,0.674,0.786c0.165,0.292,0.276,0.587,0.336,0.887h0.045c0.344-0.809,0.805-1.418,1.381-1.83
		c0.576-0.411,1.336-0.617,2.279-0.617c0.524,0,1.006,0.078,1.448,0.235c0.441,0.157,0.823,0.397,1.145,0.719
		c0.322,0.322,0.573,0.729,0.752,1.224c0.18,0.494,0.27,1.078,0.27,1.751v7.881h-0.853v-7.903c0-0.733-0.112-1.31-0.337-1.729
		s-0.49-0.737-0.797-0.954c-0.307-0.217-0.614-0.352-0.92-0.404c-0.307-0.052-0.543-0.078-0.708-0.078
		c-0.524,0-1.007,0.09-1.448,0.269c-0.441,0.18-0.823,0.449-1.145,0.809s-0.572,0.805-0.752,1.336s-0.27,1.142-0.27,1.83v6.825
		h-0.853v-7.903c0-0.718-0.109-1.291-0.326-1.717c-0.217-0.427-0.471-0.745-0.763-0.955c-0.292-0.209-0.591-0.344-0.898-0.403
		c-0.307-0.061-0.55-0.09-0.73-0.09c-0.404,0-0.823,0.082-1.257,0.247c-0.434,0.164-0.831,0.419-1.19,0.763
		c-0.359,0.345-0.651,0.786-0.875,1.325c-0.225,0.538-0.337,1.175-0.337,1.908v6.825h-0.853V407.7z"/>
	<path fill="#FFFFFF" d="M272.179,407.7h0.853v2.357h0.045c0.09-0.359,0.247-0.699,0.472-1.021s0.498-0.603,0.819-0.842
		s0.681-0.427,1.078-0.562s0.812-0.202,1.246-0.202c0.554,0,1.033,0.071,1.437,0.213c0.404,0.143,0.748,0.33,1.033,0.562
		c0.284,0.232,0.509,0.494,0.674,0.786c0.165,0.292,0.276,0.587,0.336,0.887h0.045c0.344-0.809,0.805-1.418,1.381-1.83
		c0.576-0.411,1.336-0.617,2.279-0.617c0.524,0,1.006,0.078,1.448,0.235c0.441,0.157,0.823,0.397,1.145,0.719
		c0.322,0.322,0.573,0.729,0.752,1.224c0.18,0.494,0.27,1.078,0.27,1.751v7.881h-0.853v-7.903c0-0.733-0.112-1.31-0.337-1.729
		s-0.49-0.737-0.797-0.954c-0.307-0.217-0.614-0.352-0.92-0.404c-0.307-0.052-0.543-0.078-0.708-0.078
		c-0.524,0-1.007,0.09-1.448,0.269c-0.441,0.18-0.823,0.449-1.145,0.809s-0.572,0.805-0.752,1.336s-0.27,1.142-0.27,1.83v6.825
		h-0.853v-7.903c0-0.718-0.109-1.291-0.326-1.717c-0.217-0.427-0.471-0.745-0.763-0.955c-0.292-0.209-0.591-0.344-0.898-0.403
		c-0.307-0.061-0.55-0.09-0.73-0.09c-0.404,0-0.823,0.082-1.257,0.247c-0.434,0.164-0.831,0.419-1.19,0.763
		c-0.359,0.345-0.651,0.786-0.875,1.325c-0.225,0.538-0.337,1.175-0.337,1.908v6.825h-0.853V407.7z"/>
	<path fill="#FFFFFF" d="M299.166,419.24h-0.853v-2.47h-0.045c-0.15,0.435-0.363,0.819-0.64,1.156
		c-0.277,0.337-0.599,0.625-0.966,0.864c-0.367,0.24-0.767,0.419-1.201,0.539c-0.434,0.119-0.875,0.18-1.324,0.18
		c-0.674,0-1.246-0.083-1.718-0.247s-0.857-0.382-1.156-0.651c-0.3-0.27-0.535-0.572-0.707-0.909
		c-0.172-0.337-0.296-0.677-0.371-1.021c-0.075-0.344-0.12-0.677-0.135-0.999c-0.015-0.321-0.022-0.603-0.022-0.842v-7.14h0.853
		v7.297c0,0.3,0.022,0.662,0.067,1.089s0.176,0.838,0.393,1.234c0.217,0.397,0.542,0.737,0.977,1.021
		c0.434,0.285,1.047,0.427,1.841,0.427c0.643,0,1.223-0.119,1.74-0.359c0.517-0.239,0.954-0.572,1.313-0.999
		s0.632-0.935,0.819-1.526c0.187-0.591,0.281-1.238,0.281-1.942V407.7h0.853V419.24z"/>
	<path fill="#FFFFFF" d="M301.681,407.7h0.853v2.47h0.045c0.149-0.435,0.363-0.819,0.64-1.156c0.277-0.337,0.598-0.625,0.965-0.864
		c0.367-0.239,0.767-0.419,1.201-0.539c0.434-0.12,0.875-0.18,1.325-0.18c0.673,0,1.246,0.082,1.717,0.247
		c0.472,0.165,0.857,0.382,1.156,0.651c0.299,0.269,0.535,0.572,0.708,0.909c0.172,0.337,0.295,0.677,0.37,1.021
		c0.075,0.344,0.12,0.677,0.135,0.999s0.022,0.603,0.022,0.842v7.14h-0.853v-7.297c0-0.284-0.022-0.644-0.067-1.078
		c-0.045-0.434-0.176-0.849-0.393-1.245s-0.546-0.737-0.988-1.022c-0.441-0.284-1.052-0.426-1.83-0.426
		c-0.659,0-1.243,0.119-1.751,0.358c-0.509,0.24-0.943,0.573-1.302,1c-0.359,0.426-0.632,0.936-0.819,1.526
		c-0.188,0.592-0.281,1.238-0.281,1.942v6.241h-0.853V407.7z"/>
	<path fill="#FFFFFF" d="M313.535,405.522v-2.312h0.853v2.312H313.535z M313.535,419.24V407.7h0.853v11.54H313.535z"/>
	<path fill="#FFFFFF" d="M325.794,411.27c-0.045-0.509-0.176-0.957-0.393-1.347c-0.217-0.39-0.498-0.711-0.842-0.966
		c-0.345-0.254-0.745-0.449-1.201-0.583c-0.457-0.135-0.947-0.202-1.471-0.202c-0.718,0-1.355,0.146-1.908,0.438
		c-0.554,0.292-1.018,0.682-1.392,1.167c-0.375,0.487-0.659,1.041-0.854,1.662s-0.292,1.261-0.292,1.919
		c0,0.779,0.09,1.497,0.269,2.156c0.18,0.658,0.457,1.23,0.831,1.717c0.374,0.487,0.838,0.864,1.392,1.134
		c0.553,0.27,1.205,0.404,1.953,0.404c0.539,0,1.036-0.09,1.493-0.27c0.456-0.18,0.86-0.427,1.212-0.74
		c0.352-0.314,0.64-0.692,0.864-1.134s0.374-0.925,0.449-1.448h0.853c-0.09,0.688-0.277,1.302-0.562,1.841s-0.644,0.991-1.078,1.358
		s-0.928,0.647-1.481,0.842c-0.554,0.194-1.138,0.292-1.751,0.292c-0.943,0-1.748-0.169-2.414-0.505
		c-0.666-0.337-1.212-0.79-1.639-1.358c-0.426-0.569-0.741-1.224-0.943-1.965s-0.303-1.516-0.303-2.324
		c0-0.808,0.116-1.571,0.348-2.29c0.232-0.718,0.573-1.347,1.021-1.886c0.449-0.539,1.003-0.965,1.662-1.279
		c0.658-0.314,1.415-0.472,2.268-0.472c0.628,0,1.216,0.078,1.763,0.235c0.546,0.157,1.033,0.394,1.459,0.708
		c0.427,0.313,0.775,0.715,1.044,1.201c0.27,0.486,0.434,1.051,0.494,1.694H325.794z"/>
	<path fill="#FFFFFF" d="M336.414,416.95h-0.045c-0.135,0.345-0.33,0.67-0.584,0.977s-0.565,0.58-0.932,0.819
		c-0.367,0.24-0.782,0.427-1.246,0.562c-0.464,0.135-0.973,0.202-1.527,0.202c-1.228,0-2.178-0.266-2.851-0.797
		c-0.674-0.531-1.011-1.351-1.011-2.459c0-0.673,0.135-1.224,0.404-1.65c0.27-0.426,0.61-0.763,1.021-1.01s0.868-0.423,1.37-0.527
		s0.984-0.18,1.448-0.225l1.325-0.112c0.613-0.045,1.096-0.116,1.448-0.214c0.351-0.097,0.617-0.231,0.797-0.404
		c0.18-0.172,0.292-0.393,0.337-0.662s0.067-0.606,0.067-1.01c0-0.314-0.06-0.606-0.18-0.876c-0.12-0.27-0.307-0.509-0.562-0.719
		c-0.254-0.209-0.583-0.374-0.988-0.493c-0.404-0.12-0.898-0.18-1.482-0.18c-1.033,0-1.867,0.254-2.503,0.763
		c-0.636,0.51-0.984,1.28-1.044,2.312h-0.853c0.06-1.271,0.468-2.226,1.224-2.862c0.755-0.636,1.83-0.954,3.222-0.954
		s2.406,0.273,3.042,0.819c0.636,0.547,0.954,1.262,0.954,2.145v6.713c0,0.165,0.003,0.329,0.011,0.494
		c0.007,0.165,0.034,0.314,0.079,0.448c0.045,0.135,0.12,0.244,0.225,0.326c0.104,0.082,0.254,0.123,0.449,0.123
		c0.149,0,0.359-0.022,0.629-0.067v0.719c-0.225,0.06-0.457,0.09-0.696,0.09c-0.344,0-0.617-0.045-0.819-0.135
		s-0.356-0.209-0.46-0.359c-0.104-0.149-0.176-0.325-0.213-0.527c-0.038-0.202-0.056-0.423-0.056-0.662V416.95z M336.414,412.685
		c-0.21,0.255-0.528,0.427-0.955,0.517c-0.426,0.089-0.902,0.156-1.425,0.201l-1.437,0.135c-0.419,0.045-0.838,0.109-1.257,0.191
		c-0.419,0.082-0.797,0.221-1.134,0.415c-0.337,0.194-0.61,0.46-0.82,0.797s-0.314,0.774-0.314,1.313
		c0,0.854,0.269,1.486,0.808,1.897c0.539,0.412,1.28,0.617,2.223,0.617c0.973,0,1.744-0.176,2.312-0.527s1.003-0.756,1.302-1.213
		c0.299-0.456,0.49-0.897,0.573-1.324c0.082-0.427,0.124-0.715,0.124-0.864V412.685z"/>
	<path fill="#FFFFFF" d="M344.227,408.44h-2.514v8.061c0,0.464,0.052,0.831,0.157,1.101s0.266,0.475,0.483,0.617
		c0.217,0.143,0.479,0.229,0.786,0.258c0.307,0.03,0.663,0.038,1.066,0.022v0.741c-0.434,0.03-0.857,0.026-1.269-0.011
		c-0.412-0.038-0.774-0.15-1.089-0.337c-0.314-0.188-0.565-0.468-0.752-0.843c-0.188-0.373-0.266-0.89-0.236-1.549v-8.061h-2.133
		v-0.74h2.133v-3.593h0.854v3.593h2.514V408.44z"/>
	<path fill="#FFFFFF" d="M346,405.522v-2.312h0.853v2.312H346z M346,419.24V407.7h0.853v11.54H346z"/>
	<path fill="#FFFFFF" d="M349.031,413.47c0-0.822,0.116-1.598,0.348-2.323c0.232-0.726,0.573-1.366,1.021-1.92
		c0.449-0.554,1.003-0.991,1.661-1.313c0.659-0.321,1.415-0.482,2.268-0.482c0.854,0,1.609,0.161,2.269,0.482
		c0.658,0.322,1.212,0.76,1.661,1.313s0.789,1.194,1.021,1.92c0.231,0.726,0.348,1.501,0.348,2.323c0,0.824-0.116,1.603-0.348,2.335
		c-0.232,0.734-0.572,1.374-1.021,1.92c-0.449,0.547-1.003,0.98-1.661,1.303c-0.659,0.321-1.415,0.482-2.269,0.482
		c-0.853,0-1.608-0.161-2.268-0.482c-0.658-0.322-1.212-0.756-1.661-1.303c-0.449-0.546-0.79-1.186-1.021-1.92
		C349.146,415.072,349.031,414.294,349.031,413.47z M349.884,413.47c0,0.689,0.097,1.352,0.292,1.987
		c0.194,0.637,0.479,1.201,0.854,1.695c0.374,0.494,0.838,0.887,1.392,1.179s1.19,0.438,1.908,0.438
		c0.719,0,1.354-0.146,1.909-0.438c0.554-0.292,1.018-0.685,1.392-1.179s0.658-1.059,0.854-1.695
		c0.194-0.636,0.292-1.298,0.292-1.987c0-0.688-0.098-1.351-0.292-1.986c-0.195-0.637-0.479-1.201-0.854-1.695
		s-0.838-0.887-1.392-1.179c-0.555-0.292-1.19-0.438-1.909-0.438c-0.718,0-1.354,0.146-1.908,0.438s-1.018,0.685-1.392,1.179
		c-0.375,0.494-0.659,1.059-0.854,1.695C349.981,412.119,349.884,412.782,349.884,413.47z"/>
	<path fill="#FFFFFF" d="M361.626,407.7h0.854v2.47h0.045c0.149-0.435,0.363-0.819,0.64-1.156c0.277-0.337,0.599-0.625,0.966-0.864
		c0.366-0.239,0.767-0.419,1.201-0.539c0.434-0.12,0.876-0.18,1.324-0.18c0.674,0,1.246,0.082,1.718,0.247s0.856,0.382,1.156,0.651
		c0.3,0.269,0.535,0.572,0.707,0.909s0.296,0.677,0.371,1.021c0.074,0.344,0.119,0.677,0.135,0.999
		c0.015,0.322,0.022,0.603,0.022,0.842v7.14h-0.854v-7.297c0-0.284-0.022-0.644-0.067-1.078c-0.045-0.434-0.176-0.849-0.393-1.245
		c-0.218-0.396-0.547-0.737-0.988-1.022c-0.441-0.284-1.052-0.426-1.83-0.426c-0.658,0-1.242,0.119-1.751,0.358
		c-0.509,0.24-0.942,0.573-1.302,1c-0.359,0.426-0.633,0.936-0.819,1.526c-0.188,0.592-0.281,1.238-0.281,1.942v6.241h-0.854V407.7z
		"/>
	<path fill="#FFFFFF" d="M387.176,416.95h-0.045c-0.135,0.345-0.329,0.67-0.583,0.977c-0.255,0.307-0.565,0.58-0.933,0.819
		c-0.366,0.24-0.782,0.427-1.246,0.562s-0.973,0.202-1.526,0.202c-1.228,0-2.178-0.266-2.852-0.797
		c-0.673-0.531-1.01-1.351-1.01-2.459c0-0.673,0.135-1.224,0.404-1.65c0.269-0.426,0.609-0.763,1.021-1.01
		c0.411-0.247,0.867-0.423,1.369-0.527c0.501-0.104,0.984-0.18,1.448-0.225l1.324-0.112c0.614-0.045,1.097-0.116,1.448-0.214
		c0.352-0.097,0.618-0.231,0.797-0.404c0.18-0.172,0.292-0.393,0.337-0.662s0.067-0.606,0.067-1.01c0-0.314-0.06-0.606-0.18-0.876
		c-0.119-0.27-0.307-0.509-0.561-0.719c-0.255-0.209-0.584-0.374-0.988-0.493c-0.404-0.12-0.898-0.18-1.481-0.18
		c-1.033,0-1.868,0.254-2.504,0.763c-0.636,0.51-0.984,1.28-1.044,2.312h-0.854c0.061-1.271,0.468-2.226,1.224-2.862
		c0.756-0.636,1.83-0.954,3.223-0.954c1.392,0,2.405,0.273,3.042,0.819c0.636,0.547,0.954,1.262,0.954,2.145v6.713
		c0,0.165,0.004,0.329,0.011,0.494c0.008,0.165,0.034,0.314,0.079,0.448c0.045,0.135,0.119,0.244,0.225,0.326
		c0.104,0.082,0.254,0.123,0.449,0.123c0.149,0,0.358-0.022,0.628-0.067v0.719c-0.225,0.06-0.456,0.09-0.695,0.09
		c-0.345,0-0.618-0.045-0.82-0.135c-0.201-0.09-0.355-0.209-0.46-0.359c-0.104-0.149-0.176-0.325-0.213-0.527
		c-0.038-0.202-0.057-0.423-0.057-0.662V416.95z M387.176,412.685c-0.21,0.255-0.527,0.427-0.954,0.517
		c-0.427,0.089-0.901,0.156-1.426,0.201l-1.437,0.135c-0.419,0.045-0.839,0.109-1.258,0.191s-0.797,0.221-1.134,0.415
		c-0.336,0.194-0.609,0.46-0.819,0.797s-0.314,0.774-0.314,1.313c0,0.854,0.27,1.486,0.809,1.897
		c0.539,0.412,1.279,0.617,2.223,0.617c0.973,0,1.743-0.176,2.312-0.527c0.568-0.352,1.003-0.756,1.303-1.213
		c0.299-0.456,0.489-0.897,0.572-1.324c0.082-0.427,0.123-0.715,0.123-0.864V412.685z"/>
	<path fill="#FFFFFF" d="M394.989,408.44h-2.515v8.061c0,0.464,0.052,0.831,0.157,1.101c0.104,0.27,0.266,0.475,0.482,0.617
		s0.479,0.229,0.786,0.258c0.307,0.03,0.662,0.038,1.066,0.022v0.741c-0.435,0.03-0.857,0.026-1.269-0.011
		c-0.412-0.038-0.774-0.15-1.089-0.337c-0.314-0.188-0.565-0.468-0.752-0.843c-0.188-0.373-0.267-0.89-0.236-1.549v-8.061h-2.133
		v-0.74h2.133v-3.593h0.854v3.593h2.515V408.44z"/>
	<path fill="#FFFFFF" d="M407.046,408.44h-2.515v8.061c0,0.464,0.052,0.831,0.157,1.101c0.104,0.27,0.266,0.475,0.482,0.617
		s0.479,0.229,0.786,0.258c0.307,0.03,0.662,0.038,1.066,0.022v0.741c-0.435,0.03-0.857,0.026-1.269-0.011
		c-0.412-0.038-0.774-0.15-1.089-0.337c-0.314-0.188-0.565-0.468-0.752-0.843c-0.188-0.373-0.267-0.89-0.236-1.549v-8.061h-2.133
		v-0.74h2.133v-3.593h0.854v3.593h2.515V408.44z"/>
	<path fill="#FFFFFF" d="M409.47,403.21v6.96h0.045c0.149-0.435,0.363-0.819,0.64-1.156c0.277-0.337,0.599-0.625,0.966-0.864
		c0.366-0.239,0.767-0.419,1.201-0.539c0.434-0.12,0.876-0.18,1.324-0.18c0.674,0,1.246,0.082,1.718,0.247s0.856,0.382,1.156,0.651
		c0.3,0.269,0.535,0.572,0.707,0.909s0.296,0.677,0.371,1.021c0.074,0.344,0.119,0.677,0.135,0.999
		c0.015,0.322,0.022,0.603,0.022,0.842v7.14h-0.854v-7.297c0-0.284-0.022-0.644-0.067-1.078c-0.045-0.434-0.176-0.849-0.393-1.245
		c-0.218-0.396-0.547-0.737-0.988-1.022c-0.441-0.284-1.052-0.426-1.83-0.426c-0.658,0-1.242,0.119-1.751,0.358
		c-0.509,0.24-0.942,0.573-1.302,1c-0.359,0.426-0.633,0.936-0.819,1.526c-0.188,0.592-0.281,1.238-0.281,1.942v6.241h-0.854v-16.03
		H409.47z"/>
	<path fill="#FFFFFF" d="M420.583,413.582v0.135c0,0.674,0.09,1.317,0.271,1.931c0.18,0.614,0.446,1.153,0.799,1.617
		s0.796,0.83,1.328,1.1c0.533,0.27,1.152,0.404,1.857,0.404c1.155,0,2.071-0.303,2.746-0.909c0.676-0.606,1.141-1.448,1.396-2.525
		h0.853c-0.254,1.347-0.805,2.38-1.649,3.098c-0.846,0.719-1.965,1.078-3.356,1.078c-0.854,0-1.599-0.153-2.234-0.46
		c-0.637-0.307-1.168-0.727-1.594-1.258c-0.427-0.531-0.745-1.16-0.954-1.886c-0.21-0.726-0.314-1.508-0.314-2.347
		c0-0.808,0.108-1.582,0.325-2.323s0.542-1.393,0.977-1.953c0.435-0.562,0.977-1.011,1.628-1.348s1.418-0.505,2.302-0.505
		c0.808,0,1.522,0.149,2.144,0.449s1.142,0.707,1.561,1.224s0.737,1.115,0.954,1.796c0.217,0.682,0.325,1.411,0.325,2.189
		c0,0.074-0.004,0.16-0.011,0.258c-0.008,0.098-0.012,0.176-0.012,0.235H420.583z M429.07,412.842
		c-0.03-0.629-0.135-1.224-0.315-1.785c-0.18-0.562-0.446-1.056-0.799-1.481c-0.353-0.427-0.78-0.768-1.283-1.022
		c-0.503-0.254-1.077-0.381-1.723-0.381c-0.69,0-1.298,0.131-1.823,0.393s-0.968,0.606-1.328,1.033
		c-0.36,0.426-0.638,0.924-0.833,1.492c-0.194,0.569-0.315,1.153-0.36,1.752H429.07z"/>
	<path fill="#FFFFFF" d="M438.567,415.401c0.03,0.538,0.149,1.014,0.359,1.426c0.21,0.411,0.482,0.763,0.819,1.055
		s0.73,0.513,1.179,0.662c0.449,0.15,0.936,0.225,1.46,0.225c0.374,0,0.774-0.033,1.201-0.101s0.822-0.191,1.189-0.371
		s0.67-0.43,0.909-0.752c0.239-0.321,0.359-0.729,0.359-1.224c0-0.644-0.194-1.13-0.584-1.459c-0.389-0.329-0.879-0.584-1.47-0.764
		c-0.592-0.18-1.228-0.325-1.909-0.438c-0.681-0.112-1.317-0.281-1.908-0.505c-0.592-0.225-1.081-0.543-1.471-0.955
		c-0.389-0.411-0.584-1.014-0.584-1.807c0-0.569,0.128-1.044,0.382-1.426c0.255-0.382,0.58-0.685,0.977-0.909
		s0.843-0.386,1.336-0.483c0.494-0.097,0.988-0.146,1.482-0.146c0.599,0,1.159,0.067,1.684,0.202
		c0.523,0.135,0.977,0.352,1.358,0.651c0.382,0.299,0.681,0.681,0.898,1.145c0.217,0.464,0.325,1.025,0.325,1.684h-0.854
		c0-0.523-0.086-0.973-0.258-1.347s-0.412-0.677-0.719-0.909s-0.67-0.404-1.089-0.517s-0.868-0.168-1.347-0.168
		c-0.39,0-0.782,0.037-1.179,0.112c-0.397,0.074-0.752,0.201-1.066,0.381s-0.573,0.412-0.774,0.696
		c-0.202,0.284-0.304,0.629-0.304,1.033c0,0.464,0.112,0.838,0.337,1.122c0.225,0.285,0.52,0.513,0.887,0.685
		c0.367,0.173,0.778,0.312,1.235,0.416c0.456,0.104,0.916,0.21,1.381,0.314c0.568,0.104,1.104,0.228,1.604,0.37
		c0.502,0.143,0.936,0.337,1.303,0.584c0.366,0.247,0.654,0.564,0.864,0.954c0.209,0.39,0.314,0.883,0.314,1.481
		c0,0.629-0.143,1.146-0.427,1.55c-0.284,0.403-0.644,0.729-1.078,0.977c-0.434,0.247-0.917,0.419-1.447,0.516
		c-0.532,0.098-1.052,0.146-1.561,0.146c-0.659,0-1.269-0.086-1.83-0.259c-0.562-0.172-1.052-0.434-1.471-0.785
		s-0.749-0.782-0.987-1.291c-0.24-0.509-0.367-1.101-0.382-1.773H438.567z"/>
	<path fill="#FFFFFF" d="M449.995,410.35h0.067c0.09-0.284,0.239-0.599,0.449-0.943c0.209-0.344,0.486-0.662,0.83-0.954
		c0.345-0.292,0.76-0.535,1.246-0.729s1.045-0.292,1.673-0.292c0.883,0,1.65,0.165,2.302,0.494s1.189,0.771,1.616,1.324
		s0.744,1.198,0.954,1.931c0.21,0.734,0.314,1.505,0.314,2.312c0,0.884-0.105,1.692-0.314,2.425
		c-0.211,0.734-0.529,1.366-0.957,1.897s-0.968,0.947-1.62,1.246c-0.653,0.299-1.422,0.449-2.307,0.449
		c-0.961,0-1.816-0.21-2.566-0.629s-1.297-1.1-1.643-2.043h-0.044l-0.001,6.533h-0.831V407.7h0.831V410.35z M454.25,418.769
		c0.75,0,1.398-0.142,1.946-0.427c0.548-0.284,0.998-0.665,1.352-1.145c0.353-0.479,0.615-1.036,0.787-1.673
		c0.173-0.636,0.259-1.313,0.259-2.032c0-0.658-0.082-1.306-0.247-1.941c-0.165-0.637-0.421-1.205-0.766-1.707
		c-0.345-0.501-0.791-0.905-1.34-1.212c-0.548-0.307-1.211-0.46-1.991-0.46c-0.766,0-1.419,0.149-1.959,0.448
		c-0.54,0.3-0.979,0.696-1.316,1.19c-0.338,0.494-0.582,1.059-0.732,1.695c-0.149,0.636-0.225,1.299-0.225,1.986
		c0,0.689,0.067,1.352,0.202,1.987c0.136,0.637,0.364,1.197,0.687,1.684c0.323,0.487,0.758,0.876,1.306,1.168
		S453.439,418.769,454.25,418.769z"/>
	<path fill="#FFFFFF" d="M461.76,413.582v0.135c0,0.674,0.09,1.317,0.271,1.931c0.18,0.614,0.446,1.153,0.799,1.617
		s0.796,0.83,1.328,1.1c0.533,0.27,1.152,0.404,1.857,0.404c1.155,0,2.071-0.303,2.746-0.909c0.676-0.606,1.141-1.448,1.396-2.525
		h0.853c-0.254,1.347-0.805,2.38-1.649,3.098c-0.846,0.719-1.965,1.078-3.356,1.078c-0.854,0-1.599-0.153-2.234-0.46
		c-0.637-0.307-1.168-0.727-1.594-1.258c-0.427-0.531-0.745-1.16-0.954-1.886c-0.21-0.726-0.314-1.508-0.314-2.347
		c0-0.808,0.108-1.582,0.325-2.323s0.542-1.393,0.977-1.953c0.435-0.562,0.977-1.011,1.628-1.348s1.418-0.505,2.302-0.505
		c0.808,0,1.522,0.149,2.144,0.449s1.142,0.707,1.561,1.224s0.737,1.115,0.954,1.796c0.217,0.682,0.325,1.411,0.325,2.189
		c0,0.074-0.004,0.16-0.011,0.258c-0.008,0.098-0.012,0.176-0.012,0.235H461.76z M470.247,412.842
		c-0.03-0.629-0.135-1.224-0.315-1.785c-0.18-0.562-0.446-1.056-0.799-1.481c-0.353-0.427-0.78-0.768-1.283-1.022
		c-0.503-0.254-1.077-0.381-1.723-0.381c-0.69,0-1.298,0.131-1.823,0.393s-0.968,0.606-1.328,1.033
		c-0.36,0.426-0.638,0.924-0.833,1.492c-0.194,0.569-0.315,1.153-0.36,1.752H470.247z"/>
	<path fill="#FFFFFF" d="M473.412,413.582v0.135c0,0.674,0.09,1.317,0.271,1.931c0.18,0.614,0.446,1.153,0.799,1.617
		s0.796,0.83,1.328,1.1c0.533,0.27,1.152,0.404,1.857,0.404c1.155,0,2.071-0.303,2.746-0.909c0.676-0.606,1.141-1.448,1.396-2.525
		h0.853c-0.254,1.347-0.805,2.38-1.649,3.098c-0.846,0.719-1.965,1.078-3.356,1.078c-0.854,0-1.599-0.153-2.234-0.46
		c-0.637-0.307-1.168-0.727-1.594-1.258c-0.427-0.531-0.745-1.16-0.954-1.886c-0.21-0.726-0.314-1.508-0.314-2.347
		c0-0.808,0.108-1.582,0.325-2.323s0.542-1.393,0.977-1.953c0.435-0.562,0.977-1.011,1.628-1.348s1.418-0.505,2.302-0.505
		c0.808,0,1.522,0.149,2.144,0.449s1.142,0.707,1.561,1.224s0.737,1.115,0.954,1.796c0.217,0.682,0.325,1.411,0.325,2.189
		c0,0.074-0.004,0.16-0.011,0.258c-0.008,0.098-0.012,0.176-0.012,0.235H473.412z M481.899,412.842
		c-0.03-0.629-0.135-1.224-0.315-1.785c-0.18-0.562-0.446-1.056-0.799-1.481c-0.353-0.427-0.78-0.768-1.283-1.022
		c-0.503-0.254-1.077-0.381-1.723-0.381c-0.69,0-1.298,0.131-1.823,0.393s-0.968,0.606-1.328,1.033
		c-0.36,0.426-0.638,0.924-0.833,1.492c-0.194,0.569-0.315,1.153-0.36,1.752H481.899z"/>
	<path fill="#FFFFFF" d="M493.664,416.771h-0.045c-0.479,0.913-1.078,1.598-1.796,2.055c-0.719,0.456-1.595,0.685-2.627,0.685
		c-0.868,0-1.617-0.165-2.245-0.494c-0.629-0.329-1.146-0.771-1.55-1.324s-0.703-1.193-0.897-1.92
		c-0.195-0.726-0.292-1.485-0.292-2.279c0-0.853,0.104-1.649,0.314-2.391c0.209-0.741,0.527-1.381,0.954-1.92
		c0.426-0.539,0.961-0.965,1.605-1.279c0.643-0.314,1.398-0.472,2.268-0.472c0.463,0,0.92,0.063,1.369,0.19
		c0.449,0.128,0.864,0.312,1.246,0.551s0.715,0.538,0.999,0.897s0.501,0.764,0.651,1.213h0.045v-7.072h0.853v16.03h-0.853V416.771z
		 M489.376,418.769c0.732,0,1.365-0.149,1.896-0.449c0.531-0.299,0.973-0.695,1.325-1.189c0.352-0.494,0.613-1.059,0.785-1.695
		c0.172-0.636,0.259-1.283,0.259-1.942c0-0.673-0.087-1.328-0.259-1.964c-0.172-0.637-0.43-1.205-0.774-1.707
		c-0.345-0.501-0.789-0.901-1.336-1.201c-0.546-0.299-1.187-0.448-1.919-0.448c-0.764,0-1.415,0.146-1.954,0.438
		c-0.538,0.292-0.984,0.685-1.336,1.179s-0.605,1.062-0.763,1.706s-0.236,1.311-0.236,1.998c0,0.674,0.086,1.329,0.259,1.965
		c0.172,0.637,0.434,1.201,0.785,1.695s0.798,0.887,1.336,1.179C487.983,418.623,488.627,418.769,489.376,418.769z"/>
	<path fill="#FFFFFF" d="M502.937,413.47c0-0.822,0.115-1.598,0.348-2.323s0.572-1.366,1.021-1.92s1.003-0.991,1.661-1.313
		c0.659-0.321,1.415-0.482,2.268-0.482c0.854,0,1.609,0.161,2.269,0.482c0.658,0.322,1.212,0.76,1.661,1.313s0.789,1.194,1.021,1.92
		c0.231,0.726,0.348,1.501,0.348,2.323c0,0.824-0.116,1.603-0.348,2.335c-0.232,0.734-0.572,1.374-1.021,1.92
		c-0.449,0.547-1.003,0.98-1.661,1.303c-0.659,0.321-1.415,0.482-2.269,0.482c-0.853,0-1.608-0.161-2.268-0.482
		c-0.658-0.322-1.212-0.756-1.661-1.303c-0.449-0.546-0.789-1.186-1.021-1.92C503.052,415.072,502.937,414.294,502.937,413.47z
		 M503.789,413.47c0,0.689,0.098,1.352,0.292,1.987c0.194,0.637,0.479,1.201,0.854,1.695s0.838,0.887,1.392,1.179
		s1.19,0.438,1.908,0.438c0.719,0,1.354-0.146,1.909-0.438c0.554-0.292,1.018-0.685,1.392-1.179s0.658-1.059,0.854-1.695
		c0.194-0.636,0.292-1.298,0.292-1.987c0-0.688-0.098-1.351-0.292-1.986c-0.195-0.637-0.479-1.201-0.854-1.695
		s-0.838-0.887-1.392-1.179c-0.555-0.292-1.19-0.438-1.909-0.438c-0.718,0-1.354,0.146-1.908,0.438s-1.018,0.685-1.392,1.179
		s-0.659,1.059-0.854,1.695C503.887,412.119,503.789,412.782,503.789,413.47z"/>
	<path fill="#FFFFFF" d="M514.274,408.44v-0.74h2.065v-2.38c0-0.404,0.067-0.752,0.202-1.044s0.318-0.528,0.55-0.707
		c0.232-0.18,0.502-0.314,0.809-0.404s0.632-0.135,0.977-0.135c0.255,0,0.591,0.037,1.011,0.112v0.74
		c-0.42-0.074-0.756-0.112-1.011-0.112c-0.479,0-0.88,0.109-1.201,0.326c-0.322,0.217-0.482,0.647-0.482,1.291v2.312h2.402v0.74
		h-2.402v10.8h-0.854v-10.8H514.274z"/>
	<path fill="#FFFFFF" d="M525.612,404.062v-0.853h12.281v0.853h-5.658v15.178h-0.987v-15.178H525.612z"/>
	<path fill="#FFFFFF" d="M539.689,403.21v6.96h0.045c0.149-0.435,0.363-0.819,0.64-1.156c0.277-0.337,0.599-0.625,0.966-0.864
		c0.366-0.239,0.767-0.419,1.201-0.539c0.434-0.12,0.876-0.18,1.324-0.18c0.674,0,1.246,0.082,1.718,0.247s0.856,0.382,1.156,0.651
		c0.3,0.269,0.535,0.572,0.707,0.909s0.296,0.677,0.371,1.021c0.074,0.344,0.119,0.677,0.135,0.999
		c0.015,0.322,0.022,0.603,0.022,0.842v7.14h-0.854v-7.297c0-0.284-0.022-0.644-0.067-1.078c-0.045-0.434-0.176-0.849-0.393-1.245
		c-0.218-0.396-0.547-0.737-0.988-1.022c-0.441-0.284-1.052-0.426-1.83-0.426c-0.658,0-1.242,0.119-1.751,0.358
		c-0.509,0.24-0.942,0.573-1.302,1c-0.359,0.426-0.633,0.936-0.819,1.526c-0.188,0.592-0.281,1.238-0.281,1.942v6.241h-0.854v-16.03
		H539.689z"/>
	<path fill="#FFFFFF" d="M549.95,413.47c0-0.822,0.115-1.598,0.348-2.323s0.572-1.366,1.021-1.92s1.003-0.991,1.661-1.313
		c0.659-0.321,1.415-0.482,2.268-0.482c0.854,0,1.609,0.161,2.269,0.482c0.658,0.322,1.212,0.76,1.661,1.313s0.789,1.194,1.021,1.92
		c0.231,0.726,0.348,1.501,0.348,2.323c0,0.824-0.116,1.603-0.348,2.335c-0.232,0.734-0.572,1.374-1.021,1.92
		c-0.449,0.547-1.003,0.98-1.661,1.303c-0.659,0.321-1.415,0.482-2.269,0.482c-0.853,0-1.608-0.161-2.268-0.482
		c-0.658-0.322-1.212-0.756-1.661-1.303c-0.449-0.546-0.789-1.186-1.021-1.92C550.065,415.072,549.95,414.294,549.95,413.47z
		 M550.803,413.47c0,0.689,0.098,1.352,0.292,1.987c0.194,0.637,0.479,1.201,0.854,1.695s0.838,0.887,1.392,1.179
		s1.19,0.438,1.908,0.438c0.719,0,1.354-0.146,1.909-0.438c0.554-0.292,1.018-0.685,1.392-1.179s0.658-1.059,0.854-1.695
		c0.194-0.636,0.292-1.298,0.292-1.987c0-0.688-0.098-1.351-0.292-1.986c-0.195-0.637-0.479-1.201-0.854-1.695
		s-0.838-0.887-1.392-1.179c-0.555-0.292-1.19-0.438-1.909-0.438c-0.718,0-1.354,0.146-1.908,0.438s-1.018,0.685-1.392,1.179
		s-0.659,1.059-0.854,1.695C550.9,412.119,550.803,412.782,550.803,413.47z"/>
	<path fill="#FFFFFF" d="M571.684,419.24h-0.854v-2.47h-0.045c-0.149,0.435-0.363,0.819-0.64,1.156
		c-0.277,0.337-0.599,0.625-0.966,0.864c-0.367,0.24-0.767,0.419-1.201,0.539c-0.435,0.119-0.875,0.18-1.324,0.18
		c-0.674,0-1.246-0.083-1.718-0.247s-0.857-0.382-1.156-0.651c-0.3-0.27-0.535-0.572-0.707-0.909
		c-0.173-0.337-0.296-0.677-0.371-1.021c-0.074-0.344-0.119-0.677-0.135-0.999c-0.015-0.321-0.022-0.603-0.022-0.842v-7.14h0.854
		v7.297c0,0.3,0.022,0.662,0.067,1.089s0.176,0.838,0.393,1.234c0.217,0.397,0.543,0.737,0.978,1.021
		c0.434,0.285,1.047,0.427,1.841,0.427c0.644,0,1.224-0.119,1.74-0.359c0.516-0.239,0.954-0.572,1.312-0.999
		c0.359-0.427,0.633-0.935,0.82-1.526c0.187-0.591,0.28-1.238,0.28-1.942V407.7h0.854V419.24z"/>
	<path fill="#FFFFFF" d="M583.718,407.7v10.934c0,0.644-0.075,1.269-0.225,1.875s-0.407,1.142-0.772,1.605
		c-0.366,0.464-0.87,0.834-1.513,1.111c-0.642,0.276-1.455,0.415-2.441,0.415c-0.611,0-1.187-0.063-1.725-0.19
		c-0.537-0.128-1.008-0.33-1.41-0.606c-0.403-0.277-0.729-0.644-0.975-1.101c-0.246-0.456-0.385-1.021-0.415-1.694h0.854
		c0.045,0.509,0.172,0.942,0.382,1.302c0.209,0.359,0.482,0.654,0.819,0.887s0.715,0.4,1.134,0.506
		c0.419,0.104,0.868,0.156,1.348,0.156c0.793,0,1.455-0.119,1.986-0.358c0.531-0.24,0.954-0.551,1.269-0.932
		c0.314-0.382,0.535-0.816,0.662-1.303s0.191-0.977,0.191-1.471v-2.649h-0.065c-0.403,0.854-0.952,1.505-1.646,1.953
		c-0.694,0.449-1.534,0.674-2.521,0.674c-0.851,0-1.587-0.146-2.206-0.438c-0.62-0.292-1.136-0.696-1.546-1.213
		c-0.411-0.516-0.717-1.118-0.919-1.807c-0.201-0.688-0.302-1.438-0.302-2.245c0-0.764,0.108-1.489,0.325-2.179
		c0.217-0.688,0.535-1.291,0.954-1.807c0.419-0.517,0.939-0.928,1.561-1.235c0.621-0.307,1.336-0.46,2.145-0.46
		c0.912,0,1.754,0.232,2.525,0.696c0.771,0.464,1.321,1.122,1.65,1.976h0.045V407.7H583.718z M578.666,408.172
		c-0.704,0-1.313,0.142-1.83,0.426c-0.517,0.285-0.943,0.659-1.28,1.123c-0.336,0.464-0.591,0.992-0.763,1.583
		c-0.173,0.591-0.259,1.193-0.259,1.808c0,0.673,0.086,1.313,0.259,1.919c0.172,0.606,0.434,1.134,0.785,1.583
		s0.786,0.805,1.303,1.066s1.111,0.393,1.785,0.393c0.703,0,1.316-0.134,1.841-0.403c0.523-0.27,0.961-0.637,1.313-1.101
		c0.352-0.464,0.613-0.991,0.785-1.583c0.173-0.591,0.259-1.216,0.259-1.874c0-0.644-0.086-1.265-0.259-1.864
		c-0.172-0.599-0.434-1.126-0.785-1.583c-0.353-0.456-0.79-0.819-1.313-1.089C579.982,408.307,579.369,408.172,578.666,408.172z"/>
	<path fill="#FFFFFF" d="M587.107,403.21v6.96h0.045c0.149-0.435,0.363-0.819,0.64-1.156c0.277-0.337,0.599-0.625,0.966-0.864
		c0.366-0.239,0.767-0.419,1.201-0.539c0.434-0.12,0.876-0.18,1.324-0.18c0.674,0,1.246,0.082,1.718,0.247s0.856,0.382,1.156,0.651
		c0.3,0.269,0.535,0.572,0.707,0.909s0.296,0.677,0.371,1.021c0.074,0.344,0.119,0.677,0.135,0.999
		c0.015,0.322,0.022,0.603,0.022,0.842v7.14h-0.854v-7.297c0-0.284-0.022-0.644-0.067-1.078c-0.045-0.434-0.176-0.849-0.393-1.245
		c-0.218-0.396-0.547-0.737-0.988-1.022c-0.441-0.284-1.052-0.426-1.83-0.426c-0.658,0-1.242,0.119-1.751,0.358
		c-0.509,0.24-0.942,0.573-1.302,1c-0.359,0.426-0.633,0.936-0.819,1.526c-0.188,0.592-0.281,1.238-0.281,1.942v6.241h-0.854v-16.03
		H587.107z"/>
	<path fill="#FFFFFF" d="M602.15,408.44h-2.515v8.061c0,0.464,0.052,0.831,0.157,1.101c0.104,0.27,0.266,0.475,0.482,0.617
		s0.479,0.229,0.786,0.258c0.307,0.03,0.662,0.038,1.066,0.022v0.741c-0.435,0.03-0.857,0.026-1.269-0.011
		c-0.412-0.038-0.774-0.15-1.089-0.337c-0.314-0.188-0.565-0.468-0.752-0.843c-0.188-0.373-0.267-0.89-0.236-1.549v-8.061h-2.133
		v-0.74h2.133v-3.593h0.854v3.593h2.515V408.44z"/>
</g>
<g>
</g>
<g>
</g>
<g>
</g>
<g>
</g>
<g>
</g>
<g>
</g>
<g>
</g>
<g>
</g>
<g>
</g>
<g>
</g>
<g>
</g>
<g>
</g>
<g>
</g>
<g>
</g>
<g>
</g>
</svg>
